# xmcd
#
# Track frame offsets:
#	150
#	16980
#	34795
#	55269
#	71260
#	89256
#	116514
#	137004
#	150915
#	165641
#	179904
#	193209
#
# Disc length: 2724 seconds
#
# Revision: 0
# Processed by: cddbd v1.5.2PL0 Copyright (c) Steve Scherf et al.
# Submitted via: audiograbber 1.83.01
#
DISCID=9c0aa20c
DTITLE=Josué and Jessé - Paixão E Viola
DYEAR=2007
DGENRE=Sertaneja
TTITLE0=Cigana
TTITLE1=Coração Apaixonado
TTITLE2=Lembranças De Amor - Difícil Demais
TTITLE3=Me Leva Pra Casa
TTITLE4=No Começo É Assim
TTITLE5=Pout-Porri Modas
TTITLE6=Pout-Porri Pagodes
TTITLE7=Quem Vai Tirar De Mim
TTITLE8=Só Nosso Amor
TTITLE9=Viola Chora
TTITLE10=A Quase Um Ano Sem Te Ver
TTITLE11=Falando Sério
EXTD=
EXTT0=
EXTT1=
EXTT2=
EXTT3=
EXTT4=
EXTT5=
EXTT6=
EXTT7=
EXTT8=
EXTT9=
EXTT10=
EXTT11=
PLAYORDER=
